#!OML:ASF F:\VICON\USERDATA\INSTALL\rory3\rory3.ASF
:FULLY-SPECIFIED
:DEGREES
72
root 1.1724434032540505 17.87449068445662 44.221145125281 -3.8813000305064147 1.091949161496108 1.6911025564073188
lfemur 7.968526605389403 -3.9591536379610544 -25.914739610052052
ltibia 19.813638478592217
lfoot -4.64297382396677 -7.418590523744166
ltoes -10.322886155651847
rfemur -26.661759006899022 -1.2189730003564319 19.358540998352144
rtibia 48.8468109028438
rfoot -8.229414975953144 -4.7872679781377165
rtoes -0.8970696097877404
lowerback nan -1.0374055736798766 -3.2912787369210177
upperback -0.012808418502128688 -1.9528123796897787 1.1124281626366557
thorax -5.943211722035467 -0.8991929927541827 3.5195420106307616
lowerneck -16.873351683909327 -3.218847269647932 -1.809038289524515
upperneck 21.922204822470164 -4.286286033230532 1.9098590638617712
head 9.883395170172129 -1.9888713138154503 0.47081409476594116
lclavicle -2.5794990514105452e-15 -2.7749053149836327e-15
lhumerus -25.392547169378275 -0.8427847384561233 80.8217836770372
lradius 28.65860133991051
lwrist 7.780188554126641
lhand -29.48535296291971 19.053443801500567
lfingers nan
lthumb -2.663609526876329 49.28747598943953
rclavicle -2.530335175080694e-15 -2.747242165853455e-15
rhumerus -31.995222209460405 -20.724159345067374 -78.72577641549297
rradius 29.6221795607032
rwrist 1.941486465214042
rhand -18.02088891579755 nan
rfingers nan
rthumb 8.702822274363898 -7.343689307545556
73
root 1.197862054480414 17.868874310673544 45.6802566658514 -3.8897291536050105 1.0394233343306418 2.233192041442584
lfemur 10.071136039128591 -4.1576800941990815 -26.54047690294003
ltibia 19.631603637143147
lfoot -3.555729996889013 -7.230197357108093
ltoes -9.719026276035347
rfemur -26.638124266569402 -1.4331351678868027 18.92257218664338
rtibia 44.4475695614416
rfoot -8.379128429819868 -4.604152323992203
rtoes -1.0901012033694641
lowerback nan -1.297074500162439 -3.8570192389438214
upperback -0.03880184876507719 -2.292015311817129 1.253889564547674
thorax -5.88941768141254 -1.0730052343475767 3.7850947676461564
lowerneck -16.775128373120026 -3.1001012880361536 -1.9504781026657034
upperneck 22.161503563669505 -4.049817538279549 1.7129163874272209
head 9.945326452498657 -1.9100550476772553 0.4595975202935805
lclavicle -2.577132749281719e-15 -2.771789230426349e-15
lhumerus -25.498120012224756 -0.9346717981852009 80.89858962002349
lradius 28.021939805317412
lwrist 7.8369893145486955
lhand -29.44323706362138 19.16102448875986
lfingers nan
lthumb -2.6068645762548375 49.43514697491987
rclavicle -2.5342739517669117e-15 -2.7483355452394497e-15
rhumerus -32.529196035202034 -21.198867223253274 -78.63232878358463
rradius 29.80527434922528
rwrist 1.7904779392348793
rhand -18.017532722119025 nan
rfingers nan
rthumb 8.701344450310268 -7.349976223493182
74
root 1.225316044783474 17.86482881005697 47.2266843847628 -3.7513930821389354 0.9788952942108364 2.3754290197033154
lfemur 11.293757024830194 -4.379763852129566 -26.713206423100942
ltibia 20.750470405158023
lfoot -3.636895036014436 -7.677185334242532
ltoes -8.521466726322059
rfemur -26.18515315474698 -1.5257681301724833 19.012195577814456
rtibia 39.93838588826976
rfoot -8.626425954890879 -4.791371650892795
rtoes -0.8200328259788501
lowerback nan -1.5529967467016252 -4.0340072087295695
upperback -0.0956312182142693 -2.582199038745964 1.4201416954253836
thorax -5.881415780328484 -1.2173566328736627 3.978104196991847
lowerneck -16.678275214357825 -3.0151604690444653 -2.073834148826019
upperneck 22.35777346252727 -3.8771551478058055 1.503630084236434
head 9.997628166636272 -1.8565885675945797 0.4246919599155542
lclavicle -2.5762832147381005e-15 -2.770394993146024e-15
lhumerus -25.72561811492389 -0.8910389878314295 81.03388495800384
lradius 27.15746977582123
lwrist 8.106110615603406
lhand -29.45219447271501 19.21690999231854
lfingers nan
lthumb -2.6445851455841534 49.40770438681355
rclavicle -2.537950332304991e-15 -2.7498435342298732e-15
rhumerus -32.994691872308 -21.539498174006482 -78.4255617347047
rradius 30.01052700049818
rwrist 1.7640752495138425
rhand -18.025412794877894 nan
rfingers nan
rthumb 8.762040983243567 -7.245368405478074
75
root 1.244737088366389 17.8587435921506 47.90104957632473 -3.653879296157467 0.698177935489561 2.3628943601418553
lfemur 12.035481030483632 -4.402718962233784 -26.526505498093805
ltibia 22.919980290704775
lfoot -2.86985966002419 -6.4006290615645085
ltoes -8.77765865440288
rfemur -25.435447197484336 -1.3856722654628357 19.335056104429587
rtibia 35.724464232658555
rfoot -8.948471287718661 -5.556274277597127
rtoes -0.1378891068742938
lowerback nan -1.7424210600094632 -4.094085511841848
upperback -0.12489930540028334 -2.807583358639546 1.5205837354349934
thorax -5.844811863747759 -1.3367528014843175 4.138767151781638
lowerneck -16.6148375130351 -2.966234174193111 -2.1527860627369573
upperneck 22.47601981299032 -3.7711676613654816 1.3115942194086745
head 10.028470701823698 -1.8269117883139234 0.37880975086613333
lclavicle -2.5753524352973373e-15 -2.7692465136346352e-15
lhumerus -26.054841830537157 -0.7407122453386932 81.21629899327984
lradius 26.1009346782755
lwrist 8.577653851094365
lhand -29.416883533639883 19.293712708576614
lfingers nan
lthumb -2.620407039115414 49.44593264461624
rclavicle -2.540394659714734e-15 -2.7508247893757573e-15
rhumerus -33.3749785055149 -21.77567592731386 -78.11078351079225
rradius 30.209719427970636
rwrist 1.8574727550896637
rhand -18.023215206724256 nan
rfingers nan
rthumb 8.794818633846814 -7.218334746365542
76
root 1.2657011543597756 17.85518597746004 48.496014085292195 -3.6189127166186315 0.3857402133680534 2.407479201240981
lfemur 12.122404759988461 -4.26609938640763 -26.153933199299402
ltibia 25.960310106962705
lfoot -2.620063348814342 -6.300822477016877
ltoes -8.400417952178676
rfemur -24.41266855005152 -1.2279566575552816 19.757007253609885
rtibia 32.310214277748486
rfoot -9.236852059994966 -6.799164878441077
rtoes 0.8108529157662407
lowerback nan -1.8969121775143198 -4.189842306490474
upperback -0.11106408988130631 -3.006842921035031 1.5806220226303291
thorax -5.765737599582416 -1.4328564503059777 4.237560508173593
lowerneck -16.58807756589615 -2.950049216027298 -2.199003084811311
upperneck 22.499946261923622 -3.7299619132449515 1.1598362251400793
head 10.032163084221498 -1.819027997945106 0.3311570699545203
lclavicle -2.5732163707889862e-15 -2.7675332753021156e-15
lhumerus -26.45371232060094 -0.5022199203882836 81.43404652094543
lradius 24.93835440842663
lwrist 9.066333598809942
lhand -29.381709788966315 19.226312161463536
lfingers nan
lthumb -2.6307568470525564 49.259155544225834
rclavicle -2.542191270206341e-15 -2.751550402919529e-15
rhumerus -33.6524070572557 -21.93610460090668 -77.67031985851277
rradius 30.395691635925985
rwrist 2.041130817836578
rhand -18.02492197347263 nan
rfingers nan
rthumb 8.874290987501421 -7.100625102904887
77
root 1.286488228833089 17.851247703080798 48.86672747927849 -3.576411299752228 0.03574296218881762 2.273282260542419
lfemur 11.71448457366897 -4.0111674160382425 -25.51145559370098
ltibia 29.77277208827084
lfoot -2.449919052120011 -5.386576064372263
ltoes -7.863279958058785
rfemur -23.48515618592668 -0.988186611230736 20.34944630819789
rtibia 30.114809444119278
rfoot -9.498187199919926 -8.128881086164583
rtoes 1.9192147711281065
lowerback nan -1.988248956402858 -4.083499755650895
upperback -0.10993474393947722 -3.0962024170440614 1.6630015262155387
thorax -5.711084161113578 -1.4700305704979597 4.246051314905152
lowerneck -16.581574450869308 -2.956041426620085 -2.219682448139773
upperneck 22.443427416257766 -3.731908281361499 1.052582103149113
head 10.007073826342907 -1.825216870352844 0.28946144778327654
lclavicle -2.5712519437537285e-15 -2.766143644551249e-15
lhumerus -26.919796380316505 -0.18748849218536234 81.6656213725923
lradius 23.816423433976123
lwrist 9.495727788458094
lhand -29.320712618512214 19.13473496915909
lfingers nan
lthumb -2.562418571179364 49.183453877647096
rclavicle -2.54448315217805e-15 -2.752759476080468e-15
rhumerus -33.88276617950589 -22.090694033451193 -77.14096505920942
rradius 30.573572441191928
rwrist 2.281960150990664
rhand -18.02760566662336 nan
rfingers nan
rthumb 8.860676603662816 -7.177864533503149
78
root 1.3065210122637345 17.856475838283398 49.03287820750077 -3.3843826158182795 -0.19621998645343114 1.2595445801054415
lfemur 10.878768150302273 -3.652426516756944 -24.028863360185152
ltibia 34.102853533670036
lfoot -3.452447030855742 -4.975284297066869
ltoes -8.005693139564656
rfemur -22.689144526784993 -0.46642155530187734 21.879703258368565
rtibia 29.16894377796283
rfoot -9.801777441598569 -9.120790523541677
rtoes 2.841648189888196
lowerback nan -2.0515751221966085 -3.2832987030432426
upperback -0.15525639752419235 -3.070673908908915 1.8659522432708926
thorax -5.72609267808953 -1.4641775366773706 4.181909694378118
lowerneck -16.595355728502906 -2.9725118591170943 -2.2038396637074666
upperneck 22.349164342840353 -3.7541914198869186 0.9700955710411967
head 9.968123095021 -1.838255388814397 0.25036153530492866
lclavicle -2.5700217584331652e-15 -2.7654986607162395e-15
lhumerus -27.478067117861173 0.20850092720410807 81.88415449720767
lradius 22.8766804115811
lwrist 9.88901537101418
lhand -29.321034165488722 18.964115804578352
lfingers nan
lthumb -2.5772171153739585 48.97082014021042
rclavicle -2.546329848254721e-15 -2.753939056072809e-15
rhumerus -34.1168182223065 -22.317409921243556 -76.6104782530441
rradius 30.734624711422736
rwrist 2.530372031368684
rhand -18.02453560950664 nan
rfingers nan
rthumb 8.89240552271413 -7.156325348799953
79
root 1.324091715572062 17.85473232699534 48.95686382111151 -3.402388679372974 -0.6409052180187815 0.4271653704889631
lfemur 9.940481386000007 -3.14629866923931 -22.52344644179051
ltibia 38.38494227423318
lfoot -3.851590032610052 -3.043439069185713
ltoes -8.406860974059551
rfemur -21.397523880245785 0.12731246360703308 23.291432038190525
rtibia 28.9470844177175
rfoot -10.363581554740652 -9.727136976793867
rtoes 3.194377504060948
lowerback nan -1.960425427951219 -2.6080355769965022
upperback -0.1833163198157494 -2.9000029229828224 2.0221159871868366
thorax -5.786050181475503 -1.4031919774107697 4.0684385162156484
lowerneck -16.63706801770614 -2.9946499886896585 -2.146301275534811
upperneck 22.234716404135817 -3.791414321471894 0.8997054091147474
head 9.920974678679986 -1.8560746252023548 0.21080334095957573
lclavicle -2.5688455313903152e-15 -2.7651334030848092e-15
lhumerus -28.1013316297427 0.7077208752907733 82.10256141666656
lradius 22.195132988848215
lwrist 10.243954291534736
lhand -29.378977035445505 18.813261734716527
lfingers nan
lthumb -2.6027915046882577 48.886130813929896
rclavicle -2.5472916810064348e-15 -2.7547748026017476e-15
rhumerus -34.251148922351184 -22.525408756438107 -76.02551140455743
rradius 30.873360081279756
rwrist 2.718514084005444
rhand -18.03245919544627 nan
rfingers nan
rthumb 8.844212153322083 -7.294987353366309
